<svg version="1.2" xmlns="http://www.w3.org/2000/svg" viewBox="0 0 684 227" width="684" height="227">
	<title>nixity-svg</title>
	<style>
		.s0 { fill: #5abdef;stroke: #5abdef;stroke-width: 0 } 
	</style>
	<g id="logo-group">
		<g id="logo-center">
			<g id="slogan">
			</g>
			<g id="title">
				<path id="path256489" class="s0" d="m81.5 87.6l14.2 18.5v62.9h-14.2zm94.6-30.5v111.8h-12l-68.4-85.4-14.2-18v-8.5h11l69.4 87.2v-87.1z"/>
				<path id="path256491" class="s0" d="m209.4 57h14.2v112h-14.2z"/>
				<path id="path256493" class="s0" d="m278.5 103.7l-34.5-46.7h15.8l26.4 36.4zm22.9 10.1l40.9 55.2h-15.7l-32.8-45.1-32.8 45.1h-15.7l40.8-55.2 7.7-10.1 34.1-46.6h15.6z"/>
				<path id="path256495" class="s0" d="m363.9 57h14.2v112h-14.2z"/>
				<path id="path256497" class="s0" d="m439.3 83.8h14.2v85.2h-14.2zm52.9-26.8v12.6h-91.5v-12.6z"/>
				<path id="path256499" class="s0" d="m518.9 57l26.5 45.9-7.2 12.5-34.9-58.4zm83.6 0l-42.6 71.1v40.9h-14.2v-40.9l7.1-12.7 34.3-58.4z"/>
			</g>
		</g>
	</g>
</svg>