<svg version="1.2" xmlns="http://www.w3.org/2000/svg" viewBox="0 0 800 253" width="800" height="253">
	<title>Large</title>
	<style>
		.s0 { fill: none;stroke: #ffffff;stroke-width: 2 } 
		.s1 { fill: #ffffff } 
	</style>
	<path id="Shape 1" class="s0" d="m226.5 107c-4.7 0-8.5-3.8-8.5-8.5 0-4.7 3.8-8.5 8.5-8.5 4.7 0 8.5 3.8 8.5 8.5 0 4.7-3.8 8.5-8.5 8.5zm-31-47c-4.7 0-8.5-3.8-8.5-8.5 0-4.7 3.8-8.5 8.5-8.5 4.7 0 8.5 3.8 8.5 8.5 0 4.7-3.8 8.5-8.5 8.5zm-97 115c-4.7 0-8.5-3.8-8.5-8.5 0-4.7 3.8-8.5 8.5-8.5 4.7 0 8.5 3.8 8.5 8.5 0 4.7-3.8 8.5-8.5 8.5zm53 4c-3.6 0-6.5-2.9-6.5-6.5 0-3.6 2.9-6.5 6.5-6.5 3.6 0 6.5 2.9 6.5 6.5 0 3.6-2.9 6.5-6.5 6.5zm-8-121c-3.6 0-6.5-2.9-6.5-6.5 0-3.6 2.9-6.5 6.5-6.5 3.6 0 6.5 2.9 6.5 6.5 0 3.6-2.9 6.5-6.5 6.5zm11 43c-3.6 0-6.5-2.9-6.5-6.5 0-3.6 2.9-6.5 6.5-6.5 3.6 0 6.5 2.9 6.5 6.5 0 3.6-2.9 6.5-6.5 6.5zm22 33c-3.6 0-6.5-2.9-6.5-6.5 0-3.6 2.9-6.5 6.5-6.5 3.6 0 6.5 2.9 6.5 6.5 0 3.6-2.9 6.5-6.5 6.5zm6 74c-3.6 0-6.5-2.9-6.5-6.5 0-3.6 2.9-6.5 6.5-6.5 3.6 0 6.5 2.9 6.5 6.5 0 3.6-2.9 6.5-6.5 6.5zm98-22c-3.6 0-6.5-2.9-6.5-6.5 0-3.6 2.9-6.5 6.5-6.5 3.6 0 6.5 2.9 6.5 6.5 0 3.6-2.9 6.5-6.5 6.5zm-9-82c-3.6 0-6.5-2.9-6.5-6.5 0-3.6 2.9-6.5 6.5-6.5 3.6 0 6.5 2.9 6.5 6.5 0 3.6-2.9 6.5-6.5 6.5zm-189 20c-3.6 0-6.5-2.9-6.5-6.5 0-3.6 2.9-6.5 6.5-6.5 3.6 0 6.5 2.9 6.5 6.5 0 3.6-2.9 6.5-6.5 6.5zm42.5 16c-6.1 0-11-4.9-11-11 0-6.1 4.9-11 11-11 6.1 0 11 4.9 11 11 0 6.1-4.9 11-11 11zm75 21c-6.1 0-11-4.9-11-11 0-6.1 4.9-11 11-11 6.1 0 11 4.9 11 11 0 6.1-4.9 11-11 11zm61-17c-6.1 0-11-4.9-11-11 0-6.1 4.9-11 11-11 6.1 0 11 4.9 11 11 0 6.1-4.9 11-11 11z"/>
	<path id="Shape 14" class="s1" d="m195.8 161l1.9 0.6-12 33.7-1.9-0.7zm-77.9-22.7l1.6 1.1-14.6 21.2-1.6-1.1zm-28.4-18.5l0.4-1.9 24.2 6-0.4 1.9zm42.9 18.1l1.8-0.9 14.6 28.8-1.8 0.9zm0.7-17l-1.6-1.3 17-20.4 1.6 1.3zm20-33.1l-2 0.5-6.2-28.4 2-0.5zm7.7 6.2l0.2-2 57 3.4-0.2 2zm31.6 47.9l-1.4 1.5-10.2-10 1.4-1.5zm7.3-3.5l-2 0.1-3.6-77.8 2-0.1zm10.5 15.6l0.6-1.9 64.2 23.8-0.6 1.9zm0.3-6.4l-0.4-1.9 40.6-10 0.4 1.9zm55-25.3l-2-0.5 4.8-19 2 0.5z"/>
	<path id="Nixity" class="s1" aria-label="LeakSpy"  d="m361.7 151h-43.1v-73h11.7v62.2h31.4zm36.3 1q-6.8 0-11.9-2.6-5.1-2.7-7.9-7.5-2.8-4.9-2.8-11.3v-14.2q0-6.4 2.8-11.2 2.8-4.9 7.9-7.5 5.1-2.7 11.9-2.7 6.9 0 11.9 2.7 5.1 2.6 7.9 7.5 2.8 4.8 2.8 11.2v9.9h-34v4.3q0 5.9 2.9 9 3 3.1 8.6 3.1 4.5 0 7.2-1.6 2.8-1.6 3.5-4.5h11.5q-1.3 7-7.4 11.2-6.1 4.2-14.9 4.2zm12.2-33.4l-0.8 0.9v-3.1q0-5.9-2.9-9-2.8-3.2-8.5-3.2-5.5 0-8.5 3.2-2.9 3.2-2.9 9v2.3zm42 33.4q-8.5 0-13.5-4.4-4.9-4.5-4.9-12.2 0-8 5.3-12.4 5.4-4.4 14.9-4.4h14.5v-4.9q0-4.2-2.7-6.6-2.7-2.4-7.5-2.4-4.3 0-7.2 1.9-2.8 1.8-3.3 5h-11.4q0.9-7.6 6.9-12.1 6.1-4.5 15.3-4.5 10 0 15.8 5 5.8 5 5.8 13.6v37.4h-11.4v-9.8h-1.9l2-2.4q0 6.1-4.6 9.7-4.6 3.5-12.1 3.5zm3.7-8.8q5.5 0 9-2.8 3.6-2.9 3.6-7.3v-7h-14.3q-4 0-6.4 2.3-2.4 2.2-2.4 6 0 4.1 2.8 6.5 2.8 2.3 7.7 2.3zm52.1 7.8h-11.7v-73h11.7v39.9h9.2l14-21.9h13.1l-17.1 26.5 17.4 28.5h-13.3l-14.1-23.2h-9.2zm70.2 1q-7.4 0-12.8-2.5-5.4-2.5-8.4-7.1-2.9-4.6-2.9-10.8h11.6q0 4.7 3.4 7.4 3.4 2.7 9.3 2.7 5.5 0 8.7-2.6 3.2-2.7 3.2-7.4 0-3.9-2.2-6.7-2.2-2.9-6.3-3.9l-8.8-2.5q-8.3-2.3-12.8-7.9-4.5-5.7-4.5-13.5 0-6.2 2.7-10.7 2.8-4.5 7.8-7 5.1-2.6 12-2.6 10.4 0 16.5 5.5 6.1 5.4 6.2 14.5h-11.7q0-4.5-2.9-7.1-2.9-2.6-8.2-2.6-5.1 0-8 2.5-2.8 2.4-2.8 6.7 0 4 2.1 6.8 2.2 2.8 6.2 4l9.1 2.6q8.3 2.2 12.7 7.8 4.5 5.6 4.5 13.7 0 6.2-3 10.9-2.9 4.6-8.2 7.2-5.3 2.6-12.5 2.6zm49.5 17h-11.7v-73h11.5v10.5h2.5l-2.5 2.7q0-6.6 4-10.4 4.1-3.8 10.9-3.8 8.3 0 13.2 5.7 5 5.6 5 15.2v15.2q0 6.3-2.3 11.1-2.2 4.7-6.3 7.3-4 2.5-9.6 2.5-6.8 0-10.9-3.8-4-3.8-4-10.4l2.5 2.7h-2.6l0.3 12.9zm10.6-27.1q5 0 7.8-2.9 2.9-3 2.9-8.4v-14.2q0-5.5-2.9-8.4-2.8-2.9-7.8-2.9-4.9 0-7.8 3-2.8 3-2.8 8.3v14.2q0 5.3 2.8 8.3 2.9 3 7.8 3zm58.9 27.1h-12.3l7.8-21.1-20.5-51.9h12.8l10.8 29.6q0.8 2.1 1.5 5.1 0.8 3 1.3 5 0.4-2 1.1-5 0.8-3 1.5-5.1l10.3-29.6h12.3z"/>
</svg>